# xmcd
#
# Track frame offsets:
#	150
#	23925
#	43165
#	61720
#	80227
#	100255
#	112747
#	130092
#	151947
#	167932
#	179327
#	196612
#	210857
#	224520
#	236050
#	256407
#	275485
#	292565
#	315440
#	338102
#
# Disc length: 4675 seconds
# Revision: 5
# Processed by: cddbd v1.5.2PL0 Copyright (c) Steve Scherf et al.
# Submitted via: dBpowerAMP V12.0
#
DISCID=12124114
DTITLE=Various Artist - The Blues Album
DYEAR=1995
DGENRE=Blues
TTITLE0=Muddy Waters - Manish Boy
TTITLE1=John Lee Hooker - Boom Boom
TTITLE2=Cream - Crossroads
TTITLE3=U2 and B.B. King - When Love Comes To Town
TTITLE4=Buddy Guy - Mustang Sally
TTITLE5=Albert King - Born Under A Bad Sign
TTITLE6=Fleetwood Mac - Need Your Love So Bad
TTITLE7=Robbie Robertson - Somewhere Down The Crazy River
TTITLE8=Santana - Black Magic Woman
TTITLE9=Erma Franklin - (Take A Little) Piece Of My Heart
TTITLE10=Little Feat - Dixie Chicken
TTITLE11=Canned Heat - On The Road Again
TTITLE12=Howlin' Wolf - Smokestack Lightnin'
TTITLE13=Etta James - I'd Rather Go Blind
TTITLE14=The Commitments - Try A Little Tenderness
TTITLE15=Robert Cray Band - Right Next Door (Because Of Me)
TTITLE16=Dire Straits - Fade to Black
TTITLE17=Chris Rea - Nineties Blues
TTITLE18=Derek and The Dominoes - Bell Bottom Blues
TTITLE19=J.J. Cale - Cocaine
EXTD=
EXTT0=
EXTT1=
EXTT2=
EXTT3=
EXTT4=
EXTT5=
EXTT6=
EXTT7=
EXTT8=
EXTT9=
EXTT10=
EXTT11=
EXTT12=
EXTT13=
EXTT14=
EXTT15=
EXTT16=
EXTT17=
EXTT18=
EXTT19=
PLAYORDER=
